<svg width="113.02" height="122.87999999999998" xmlns="http://www.w3.org/2000/svg">
 <style type="text/css">
  <![CDATA[
	.st0{fill-rule:evenodd;clip-rule:evenodd;}
]]>
 </style>

 <g>
  <title>background</title>
  <rect fill="none" id="canvas_background" height="514" width="514" y="-1" x="-1"/>
 </g>
 <g>
  <title>Layer 1</title>
  <g fill="white" id="svg_1">
   <path id="svg_2" d="m70.120003,40.959999l2.860001,2.860001c0.75,0.75 0.75,1.990002 0,2.740002l-2.310005,2.309998c0.639999,1.190002 1.120003,2.470001 1.43,3.810001l2.989998,0c1.070007,0 1.940002,0.869999 1.940002,1.939999l0,4.049999c0,1.070004 -0.869995,1.940002 -1.940002,1.940002l-3.259995,0c-0.400002,1.32 -0.970001,2.559998 -1.690002,3.709999l2.110001,2.110001c0.75,0.75 0.75,1.989998 0,2.739998l-2.860001,2.860001c-0.75,0.75 -1.989998,0.75 -2.739998,0l-2.300003,-2.299995c-1.189999,0.639999 -2.469997,1.119995 -3.82,1.43l0,2.989998c0,1.07 -0.869999,1.939995 -1.939999,1.939995l-4.049999,0c-1.07,0 -1.940002,-0.869995 -1.940002,-1.939995l0,-3.260002c-1.32,-0.400002 -2.559998,-0.970001 -3.709999,-1.690002l-2.09,2.100006c-0.75,0.75 -1.989998,0.75 -2.739998,0l-2.860001,-2.860001c-0.75,-0.75 -0.75,-1.990005 0,-2.740005l2.299999,-2.299995c-0.639999,-1.190002 -1.119999,-2.470001 -1.43,-3.810001l-2.989998,0c-1.060001,0 -1.940002,-0.869999 -1.940002,-1.939999l0,-4.050003c0,-1.07 0.869999,-1.939999 1.940002,-1.939999l3.259998,0c0.400002,-1.32 0.970001,-2.560001 1.689999,-3.709999l-2.110001,-2.110001c-0.75,-0.75 -0.75,-1.990002 0,-2.740002l2.860001,-2.859997c0.75,-0.75 1.990002,-0.75 2.740002,0l2.310001,2.309998c1.189999,-0.639999 2.469997,-1.119999 3.809998,-1.43l0,-2.989998c0,-1.07 0.869999,-1.940002 1.940002,-1.940002l4.049999,0c1.07,0 1.939999,0.870003 1.939999,1.940002l0,3.259998c1.32,0.400002 2.559998,0.970001 3.709999,1.690002l2.110001,-2.110001c0.75,-0.77 1.980003,-0.77 2.730003,-0.010002l0,0l0,0zm-25.990002,61.110001c-1.139999,0.029999 -2.139999,-0.809998 -2.299999,-1.959999c-0.170002,-1.199997 0.639999,-2.309998 1.82,-2.540001c-1.300003,-7.370003 -4.850002,-11.43 -8.600002,-15.720001c-2.919998,-3.339996 -5.949999,-6.809998 -8.34,-11.919998c-2.349998,-5.029999 -3.639999,-10.23 -3.599998,-15.630001c0.049999,-5.399998 1.42,-10.959999 4.4,-16.709999c0.02,-0.040001 0.039999,-0.07 0.059999,-0.110001l0,0c3.91,-6.619999 9.380001,-11.039999 15.470001,-13.52c5.110001,-2.089998 10.66,-2.799999 16.099998,-2.299999c5.419998,0.5 10.730003,2.200001 15.370003,4.940001c5.900002,3.49 10.75,8.67 13.419998,15.210001c1.440002,3.539997 2.419998,7.489998 2.540001,11.82c0.119995,4.309998 -0.620003,8.959999 -2.610001,13.880001c-2.660004,6.589996 -6.18,10.68 -9.470001,14.509995c-3.029999,3.530006 -5.849998,6.810005 -7.419998,11.840004c0.889999,0.209999 1.589996,0.940002 1.729996,1.900002c0.170006,1.239998 -0.699997,2.389999 -1.939995,2.559998l-0.760002,0.110001c-0.139999,1.089996 -0.230003,2.260002 -0.269997,3.510002l0.25,-0.040001c1.239998,-0.169998 2.389999,0.699997 2.559998,1.939995c0.169998,1.240005 -0.700005,2.390007 -1.940002,2.560005l-0.779999,0.110001c0.010002,0.150002 0.019997,0.299995 0.029999,0.449997l0,0c0.07,0.879997 0.080002,1.730003 0.029999,2.540001l0.130005,-0.019997c1.25,-0.150002 2.379997,0.739998 2.540001,1.979996c0.149994,1.25 -0.740005,2.379997 -1.980003,2.540001l-1.68,0.209999c-1.199997,3.110001 -3.339996,5.480003 -5.869999,6.940002c-1.740002,1.010002 -3.670002,1.589996 -5.610001,1.709999c-1.970001,0.120003 -3.959999,-0.25 -5.779999,-1.129997c-2.080002,-1.020004 -3.940002,-2.710007 -5.290001,-5.140007c-0.650002,-0.329994 -1.130001,-0.969994 -1.23,-1.75c-0.040001,-0.309998 -0.010002,-0.609993 0.07,-0.889999c-0.389999,-1.159996 -0.68,-2.43 -0.869999,-3.829994l-0.07,0.009995c-1.240002,0.170006 -2.390003,-0.699997 -2.560001,-1.939995s0.700001,-2.389999 1.939999,-2.560005l0.540001,-0.079994c0.029999,-1.220001 0.02,-2.380005 -0.029999,-3.480003l0,0l0,0zm-41.950001,-43.209999c-1.17,0.029999 -2.14,-0.880001 -2.18,-2.049999c-0.04,-1.170002 0.88,-2.140003 2.05,-2.18l8.7,-0.299999c1.17,-0.040001 2.14,0.879997 2.18,2.049999c0.04,1.169998 -0.88,2.139999 -2.05,2.18l-8.7,0.299999l0,0l0,0zm108.510002,-8.610001c1.159996,-0.119999 2.199997,0.73 2.32,1.889999c0.119995,1.16 -0.730003,2.200001 -1.889999,2.32l-8.660004,0.91c-1.159996,0.120003 -2.199997,-0.73 -2.32,-1.889999c-0.120003,-1.16 0.730003,-2.200001 1.889999,-2.32l8.660004,-0.91l0,0l0,0zm-15.770004,-35.47c0.650002,-0.969999 1.959999,-1.23 2.93,-0.58c0.970001,0.650001 1.230003,1.96 0.580002,2.929999l-4.840004,7.240002c-0.649994,0.969999 -1.959999,1.23 -2.929993,0.58c-0.970001,-0.650002 -1.230003,-1.960001 -0.580002,-2.93l4.839996,-7.240001l0,0l0,0zm-37.289997,-12.72c0.029999,-1.17 1,-2.09 2.16,-2.06c1.169998,0.03 2.09,1 2.059998,2.16l-0.219997,8.7c-0.030003,1.17 -1,2.09 -2.16,2.06c-1.170002,-0.03 -2.09,-1 -2.060001,-2.16l0.220001,-8.7l0,0l0,0zm-43.750001,13.47c-0.86,-0.8 -0.900001,-2.139999 -0.11,-2.99c0.799999,-0.86 2.139999,-0.9 2.99,-0.11l6.369999,5.940001c0.860001,0.799999 0.900002,2.139999 0.110001,2.99c-0.799999,0.859999 -2.139999,0.9 -2.99,0.109999l-6.37,-5.94l0,0l0,0zm34.000001,81.429999l18.490002,-2.629997c1.589996,-6.700005 5.049995,-10.730003 8.799995,-15.080002c3.080002,-3.580002 6.360001,-7.400002 8.760002,-13.339996c1.760002,-4.350002 2.409996,-8.430004 2.309998,-12.190002c-0.099998,-3.75 -0.959999,-7.210003 -2.239998,-10.34c-2.300003,-5.630001 -6.510002,-10.110001 -11.650002,-13.150002c-4.110001,-2.43 -8.799999,-3.939999 -13.59,-4.369999c-4.769997,-0.440001 -9.639999,0.189999 -14.129997,2.019999c-5.260002,2.150002 -9.990002,5.969999 -13.390001,11.719999c-2.639999,5.120003 -3.860001,10.02 -3.9,14.730003c-0.040001,4.739998 1.110001,9.329998 3.200001,13.799995c2.129997,4.560005 4.969997,7.800003 7.689999,10.920006c4.240002,4.860001 8.25,9.449997 9.650002,17.909996l0,0l0,0zm17.740002,2.07l-17.270004,2.450005c0.050003,1.099998 0.07,2.25 0.050003,3.469994l17.049995,-2.419998c0.020004,-1.229996 0.07,-2.400002 0.170006,-3.5l0,0l0,0zm-17.130001,10.5c0.119999,0.919998 0.299999,1.760002 0.529999,2.540001l16.549999,-2.040001c0.110001,-0.860001 0.129997,-1.769997 0.050003,-2.739998l0,0l0,-0.020004l-0.010002,-0.169998l-17.119999,2.43l0,0l0,0zm2.879997,6.840004c0.639999,0.669998 1.350002,1.189995 2.100002,1.549995c1.149998,0.560005 2.419998,0.790001 3.669998,0.720001c1.290001,-0.080002 2.57,-0.470001 3.740002,-1.150002c1.099998,-0.639999 2.09,-1.529999 2.879997,-2.650002l-12.389999,1.530006l0,0l0,0zm5.720001,-68.200005c4.389999,0 7.960003,3.560001 7.960003,7.960003s-3.560001,7.959995 -7.960003,7.959995s-7.959999,-3.559998 -7.959999,-7.959995c0,-4.400002 3.57,-7.960003 7.959999,-7.960003l0,0l0,0z" class="st0"/>
  </g>
 </g>
</svg>